<svg width="30" height="30" viewBox="0 0 30 30" fill="none" xmlns="http://www.w3.org/2000/svg">
<rect width="30" height="30" fill="#2D303A"/>
<path d="M6 24C5.45 24 4.97917 23.8042 4.5875 23.4125C4.19583 23.0208 4 22.55 4 22V8C4 7.45 4.19583 6.97917 4.5875 6.5875C4.97917 6.19583 5.45 6 6 6H24C24.55 6 25.0208 6.19583 25.4125 6.5875C25.8042 6.97917 26 7.45 26 8V22C26 22.55 25.8042 23.0208 25.4125 23.4125C25.0208 23.8042 24.55 24 24 24H6ZM6 22H8V20H6V22ZM22 22H24V20H22V22ZM6 18H8V16H6V18ZM22 18H24V16H22V18ZM6 14H8V12H6V14ZM22 14H24V12H22V14ZM6 10H8V8H6V10ZM22 10H24V8H22V10ZM10 22H20V8H10V22Z" fill="white"/>
</svg>
